<?xml version="1.0" encoding="utf-8"?>
<!-- Generator: Adobe Illustrator 27.1.1, SVG Export Plug-In . SVG Version: 6.00 Build 0)  -->
<svg version="1.1" id="Layer_1" xmlns="http://www.w3.org/2000/svg" xmlns:xlink="http://www.w3.org/1999/xlink" x="0px" y="0px"
	 viewBox="0 0 304.9 304.9" style="enable-background:new 0 0 304.9 304.9;" xml:space="preserve">
<style type="text/css">
	.st0{fill:#FF2803;}
	.st1{fill:#EEEEEE;}
</style>
<g id="SvgjsG3071" transform="matrix(3.125,0,0,3.125,0,0)">
	<path class="st0" d="M0,0h97.6v97.6H0V0z"/>
</g>
<g id="SvgjsG3072" transform="matrix(0.14244728150787542,0,0,0.14244728150787542,119.86682981071048,101.44195569971271)">
	<path d="M457.7,21.5c0.1-4.1-3.1-7.4-7.1-7.6c-0.1,0-0.3,0-0.4,0H8.5C4.4,13.8,1.1,17,1,21.1c0,0.1,0,0.3,0,0.4v352.4
		c-0.1,4.2,3.1,7.7,7.3,7.9c0.1,0,0.1,0,0.2,0h152l-15.1,53.7h-26.8c-4.3,0-7.8,3.5-7.8,7.8c0,4.3,3.5,7.8,7.8,7.8h221.6
		c4.3,0,7.8-3.5,7.8-7.8c0-4.3-3.5-7.8-7.8-7.8h-26.8l-15.1-53.7h152c4.2-0.1,7.6-3.5,7.5-7.7c0-0.1,0-0.1,0-0.2v-65.4l0,0v-15.6
		l0,0V21.5H457.7z M16.7,29.6h425.4V293H16.7V29.6z M297.1,435.5H161.6l15.1-53.7H282L297.1,435.5z M442.1,366.2H16.7v-57.6h425.4
		V366.2z"/>
	<path d="M323,116.7V94.3c-0.1-3.1-1.9-5.8-4.7-7.1l-85.6-39.3c-2.1-1-4.5-1-6.6,0l-85.7,39.3c-2.8,1.3-4.7,4-4.7,7.1v22.5
		c-40,10.3-62.5,26.4-62.5,45.5c0,21.8,28.4,36.6,62.5,45.5v24.3c0.1,3.1,1.9,5.8,4.7,7.1l85.6,39.3c1,0.5,2.2,0.7,3.3,0.7
		s2.3-0.2,3.3-0.7l85.7-39.3c2.8-1.3,4.7-4,4.7-7.1v-24.3c8.5-2.2,16.9-4.9,25-8.1c30.8-12.5,37.4-27.3,37.4-37.4
		C385.5,143,363,126.9,323,116.7z M229.4,63.5l66.9,30.8l-66.9,31l-66.9-31L229.4,63.5z M221.6,259.3l-29.4-13.5
		c1.9,0.3,3.8-0.1,5.5-1.2l23.9-15.7V259.3z M201.1,223.6V196l21.1,13.8L201.1,223.6z M197.7,175c-3.7-2.4-8.5-1.3-10.9,2.3
		c-0.8,1.3-1.3,2.7-1.3,4.2v19.1c-11.7-1.2-23.4-3-34.2-5.2v-88.9l70.3,32.4v51.8L197.7,175z M115.9,185c-16.9-7-27-15.4-27-22.7
		c0-8.5,14.6-20.5,46.8-29.4v58.8C129,189.8,122.4,187.6,115.9,185L115.9,185z M151.3,211.3c11.7,2.2,23.4,3.8,34.2,5v21.8
		c0,2.3,0.9,4.4,2.6,5.9l-36.8-16.9V211.3z M307.4,227.2l-70.3,32.2v-40.6l3.6-2.4c3.6-2.4,4.6-7.2,2.2-10.8
		c-0.6-0.9-1.4-1.7-2.2-2.2l-3.6-2.4v-62.1l70.3-32.4v89c-14.6,2.9-29.4,5-44.3,6.1c-4.3,0.3-7.6,4.1-7.3,8.4
		c0.3,4.1,3.7,7.2,7.7,7.2c0.2,0,0.6,0,0.8,0c14.4-1.1,28.8-3,43-5.7L307.4,227.2z M342.2,185.3c-6.3,2.5-12.7,4.6-19.2,6.4v-58.9
		c24.4,6.8,46.8,17.9,46.8,29.5C369.9,169.7,359.5,178.3,342.2,185.3z"/>
</g>
<g id="SvgjsG3073" transform="matrix(0.6401721713046653,0,0,0.6401721713046653,54.71965565739067,180.39741865146152)">
	<path class="st1" d="M0.3,32.2c-0.3,0-0.5-0.2-0.5-0.5V8.3C-0.2,8,0,7.8,0.3,7.8h9.6c3,0,5.3,0.7,6.9,2.3c2.4,2.2,3.2,6.3,2.1,9.4
		c-0.4,1.1-1.2,2.1-2.1,2.8c-3.2,2.5-7.1,2.2-10.9,2.2v7.2c0,0.3-0.2,0.5-0.5,0.5C5.4,32.2,0.3,32.2,0.3,32.2z M5.9,19.1
		c0,0,4.9,0.5,6.6-0.6c0.7-0.4,1.1-1.5,1.1-2.3c0-0.9-0.5-1.8-1.2-2.3c-0.7-0.6-2.6-0.8-3.5-0.8l-3,0.1C5.9,13.2,5.9,19.1,5.9,19.1z
		 M26.8,32.2c-0.3,0-0.5-0.2-0.5-0.5V8.3c0-0.3,0.2-0.5,0.5-0.5h9.5c3,0,5.3,0.7,6.9,2.3c2.4,2.2,3.2,6.3,2.1,9.4
		c-0.4,1.1-1.2,2.1-2.1,2.8c-0.5,0.4-1.1,0.7-1.7,1.1c1.7,2.7,4.2,8,4.2,8c0,0.1,0.1,0.2,0.1,0.3c0,0.3-0.2,0.5-0.5,0.5h-5.8
		c-0.2,0-0.4-0.1-0.4-0.3l-3.4-7.5c-1.2,0.1-2.1,0-3.4,0v7.2c0,0.3-0.2,0.5-0.5,0.5C31.8,32.2,26.8,32.2,26.8,32.2z M32.3,19.1
		c0,0,4.9,0.5,6.6-0.6c0.7-0.4,1.1-1.5,1.1-2.3c0-0.9-0.5-1.8-1.2-2.3c-0.7-0.6-2.6-0.8-3.5-0.8l-3,0.1
		C32.3,13.2,32.3,19.1,32.3,19.1z M53.2,32.2c-0.3,0-0.5-0.2-0.5-0.5V8.3c0-0.3,0.2-0.5,0.5-0.5h5.1c0.3,0,0.5,0.2,0.5,0.5v23.4
		c0,0.3-0.2,0.5-0.5,0.5H53.2z M66,32.2c-0.3,0-0.5-0.2-0.5-0.5V8.3c0-0.3,0.2-0.5,0.5-0.5h4.6c0.2,0,0.3,0.1,0.4,0.2l9,13.9V8.3
		c0-0.3,0.2-0.5,0.5-0.5h4.8c0.3,0,0.5,0.2,0.5,0.5v23.4c0,0.3-0.2,0.5-0.5,0.5h-4.6c-0.2,0-0.3-0.1-0.4-0.2l-8.9-13.8v13.5
		c0,0.3-0.2,0.5-0.5,0.5H66z M99,32.2c-0.3,0-0.5-0.2-0.5-0.5V13.3h-5.3c-0.3,0-0.5-0.2-0.5-0.5V8.3c0-0.3,0.2-0.5,0.5-0.5h16.7
		c0.3,0,0.5,0.2,0.5,0.5v4.5c0,0.3-0.2,0.5-0.5,0.5h-5.3v18.4c0,0.3-0.2,0.5-0.5,0.5H99z M117.7,24c-0.3,0-0.5-0.2-0.5-0.5v-3.4
		c0-0.3,0.2-0.5,0.5-0.5h13.1c0.3,0,0.5,0.2,0.5,0.5v3.4c0,0.3-0.2,0.5-0.5,0.5H117.7z M138.6,32.2c-0.3,0-0.5-0.2-0.5-0.5V8.3
		c0-0.3,0.2-0.5,0.5-0.5h5.1c0.3,0,0.5,0.2,0.5,0.5v18.3h8.8c0.3,0,0.5,0.2,0.5,0.5v4.6c0,0.3-0.2,0.5-0.5,0.5
		C153,32.2,138.6,32.2,138.6,32.2z M160.7,32.2c-0.2,0-0.3-0.1-0.4-0.2c-0.1-0.1-0.1-0.3-0.1-0.5l9.1-23.4c0.1-0.2,0.3-0.3,0.5-0.3
		h5.2c0.2,0,0.4,0.1,0.5,0.3l8.9,23.4c0,0.2,0,0.3-0.1,0.5c-0.1,0.2-0.2,0.2-0.4,0.2h-5.4c-0.2,0-0.4-0.1-0.5-0.3l-1.4-3.6h-8.8
		l-1.4,3.6c-0.1,0.2-0.3,0.3-0.5,0.3C165.9,32.2,160.7,32.2,160.7,32.2z M169.5,23.4h5.6l-2.8-8.3L169.5,23.4z M191.4,32.2
		c-0.3,0-0.5-0.2-0.5-0.5V8.3c0-0.3,0.2-0.5,0.5-0.5h9.3c2.6,0,4.3,0.5,5.8,1.7c2.1,1.5,3,4.4,2,6.9c-0.5,1.2-1.4,1.9-2.5,2.5
		c1.7,0.2,2.7,1.3,3.4,2.1c0.9,1.2,1.4,2.6,1.4,4.2c0,2.1-0.9,3.9-2.5,5.2c-1.6,1.2-3.8,1.8-6.5,1.8
		C201.7,32.2,191.4,32.2,191.4,32.2z M196.6,16.7h3.8c0.8,0,1.4-0.2,1.8-0.5c0.4-0.4,0.6-0.8,0.6-1.4c0-0.6-0.2-1.1-0.6-1.4
		c-0.4-0.4-1-0.5-1.7-0.5h-4L196.6,16.7L196.6,16.7z M196.6,27.4h4.6c1.2,0,2.1-0.2,2.7-0.7c0.6-0.4,0.9-1,0.9-1.8
		c0-0.7-0.3-1.3-0.9-1.7c-0.6-0.4-1.5-0.7-2.6-0.7h-4.7C196.6,22.5,196.6,27.4,196.6,27.4z M220.1,32.2c-0.7,0-1.4-0.3-1.8-0.8
		c-0.5-0.5-0.7-1.2-0.7-2c0-0.8,0.3-1.4,0.7-1.9c0.5-0.5,1.1-0.8,1.8-0.8s1.4,0.3,1.8,0.8c0.5,0.5,0.7,1.1,0.7,1.9
		c0,0.8-0.2,1.4-0.7,2C221.4,31.9,220.8,32.2,220.1,32.2z M229.8,32.2c-0.2,0-0.4-0.1-0.4-0.3c-0.1-0.2-0.1-0.4,0-0.5l6.6-11.7
		l-6-11.2c-0.1-0.2-0.1-0.4,0-0.5c0.1-0.2,0.2-0.3,0.4-0.3h5.5c0.2,0,0.4,0.1,0.4,0.2l3.3,6.2l3.3-6.2c0.1-0.2,0.2-0.2,0.4-0.2h5.6
		c0.2,0,0.4,0.1,0.4,0.3c0.1,0.2,0.1,0.4,0,0.5l-5.9,10.9l6.6,11.9c0.1,0.2,0.1,0.4,0,0.5c-0.1,0.2-0.2,0.3-0.4,0.3h-5.7
		c-0.2,0-0.4-0.1-0.4-0.2l-3.9-6.8l-3.8,6.8c-0.1,0.2-0.3,0.2-0.4,0.2L229.8,32.2L229.8,32.2z M265.6,32.2c-0.3,0-0.5-0.2-0.5-0.5
		v-9.3l-8.3-13.9c-0.1-0.2-0.1-0.4,0-0.5c0.1-0.2,0.2-0.2,0.4-0.2h5.1c0.2,0,0.4,0.1,0.4,0.3l5.3,8.7l5.2-8.7
		c0.1-0.2,0.2-0.3,0.4-0.3h5.1c0.2,0,0.4,0.1,0.4,0.2c0.1,0.2,0.1,0.4,0,0.5L271,22.2v9.4c0,0.3-0.2,0.5-0.5,0.5L265.6,32.2
		L265.6,32.2z M286.6,32.2c-0.3,0-0.5-0.2-0.5-0.5v-3.6c0-0.1,0-0.2,0.1-0.4l10.3-14.6h-9.4c-0.3,0-0.5-0.2-0.5-0.5V8.3
		c0-0.3,0.2-0.5,0.5-0.5H304c0.3,0,0.5,0.2,0.5,0.5v3.6c0,0.1,0,0.2-0.1,0.3l-10.2,14.6h10c0.2,0,0.3,0.1,0.4,0.2s0.2,0.2,0.2,0.4
		v4.4c0,0.3-0.2,0.5-0.5,0.5L286.6,32.2L286.6,32.2z"/>
</g>
</svg>
